<?xml version="1.0" encoding="utf-8"?>
<!-- Generator: Adobe Illustrator 16.0.3, SVG Export Plug-In . SVG Version: 6.00 Build 0)  -->
<!DOCTYPE svg PUBLIC "-//W3C//DTD SVG 1.1//EN" "http://www.w3.org/Graphics/SVG/1.1/DTD/svg11.dtd">
<svg version="1.1" xmlns="http://www.w3.org/2000/svg" xmlns:xlink="http://www.w3.org/1999/xlink" x="0px" y="0px" width="1366px"
	 height="768px" viewBox="0 0 1366 768" enable-background="new 0 0 1366 768" xml:space="preserve">
<g id="Capa_1">
	<g>
		<linearGradient id="SVGID_1_" gradientUnits="userSpaceOnUse" x1="671.2808" y1="85.4814" x2="671.2808" y2="667.4292">
			<stop  offset="0" style="stop-color:#FFFFFF"/>
			<stop  offset="0.0975" style="stop-color:#DBDBDB"/>
			<stop  offset="0.3582" style="stop-color:#7E7E7E"/>
			<stop  offset="0.5701" style="stop-color:#3A3A3A"/>
			<stop  offset="0.7223" style="stop-color:#101010"/>
			<stop  offset="0.8" style="stop-color:#000000"/>
		</linearGradient>
		<path fill-rule="evenodd" clip-rule="evenodd" fill="url(#SVGID_1_)" d="M380,419.958c0-0.333,0-0.666,0-1
			c2.531-8.279,3.246-8.768,12.027-8.489c3.355,0.106,6.572,1.054,9.866,1.523c11.326,1.616,18.129-2.449,21.026-13.453
			c4.147-15.744,4-31.714,0.341-47.49c-2.649-11.418-9.442-15.423-21.083-13.86c-4.281,0.575-8.532,1.5-12.908,1.275
			c-5.693-0.293-7.822-1.853-8.304-7.607c-1.426-17.013,1.274-33.47,7.378-49.388c1.733-4.52,3.62-8.974,6.514-12.901
			c4.548-6.174,9.952-7.088,16.395-2.86c3.632,2.383,6.748,5.434,10.279,7.938c8.365,5.931,15.14,5.839,22.545-1.167
			c12.636-11.955,20.928-26.717,25.554-43.374c2.596-9.35-0.922-15.761-9.619-20.056c-3.589-1.772-7.48-2.812-11.04-4.675
			c-9.132-4.781-10.777-10.264-5.27-19.076c6.691-10.707,15.729-19.361,25.067-27.69c4.966-4.43,9.908-8.944,16.014-11.854
			c8.792-4.191,13.666-2.385,17.547,6.528c1.264,2.902,2.288,5.904,3.466,8.84c4.335,10.802,10.705,14.33,22.072,11.692
			c11.195-2.597,21.032-8.262,30.531-14.525c4.745-3.128,9.22-6.584,12.915-10.958c5.598-6.627,6.056-12.775,1.466-20.161
			c-2.468-3.972-5.633-7.435-8.279-11.275c-4.646-6.743-3.941-12.005,2.755-16.723c9.462-6.666,20.545-9.35,31.647-11.538
			c8.924-1.758,18.056-2.365,27.165-2.087c11.595,0.353,11.794,4.113,11.203,12.65c-0.309,4.469-1.659,8.847-1.697,13.368
			c-0.072,8.57,3.141,13.67,11.283,16.246c17.129,5.417,34.536,5.183,51.768,0.707c9.215-2.394,13.014-9.095,12-18.619
			c-0.528-4.961-1.423-9.881-1.183-14.92c0.281-5.905,2.366-8.432,8.36-8.795c20.672-1.255,40.213,3.138,58.475,12.747
			c9.531,5.016,10.652,11.788,4.111,20.469c-2.305,3.059-4.885,5.915-7.045,9.081c-4.629,6.782-4.502,12.746,0.28,19.418
			c0.194,0.271,0.371,0.561,0.603,0.796c13.254,13.486,28.681,23.293,47.386,27.133c7.183,1.474,13.173-2.128,16.736-9.044
			c1.834-3.561,2.973-7.421,4.536-11.098c3.972-9.339,9.742-11.367,18.729-6.747c3.285,1.689,6.284,3.797,9.012,6.253
			c9.536,8.588,18.834,17.419,26.831,27.509c1.552,1.958,2.928,4.058,4.178,6.222c5.043,8.742,3.23,14.611-5.871,19.025
			c-4.347,2.108-9.008,3.465-13.3,5.74c-6.207,3.289-8.717,8.378-8.129,15.234c0.316,3.689,1.243,7.217,2.552,10.659
			c4.479,11.773,10.574,22.608,18.621,32.336c9.637,11.648,18.085,12.583,30.019,3.208c3.011-2.365,5.888-4.92,9.446-6.488
			c4.861-2.142,7.907-1.564,11.755,2.124c1.951,1.869,3.475,4.005,4.707,6.406c6.501,12.66,9.561,26.238,10.553,40.313
			c0.2,2.837,0.854,5.685,0.44,8.564c0,1.587,0,3.173,0,4.76c-0.165,10.32-2.975,12.839-13.07,11.817
			c-3.65-0.37-7.237-1.141-10.873-1.585c-8.853-1.082-14.813,2.381-18.216,10.611c-1.8,4.355-2.504,8.985-3.074,13.609
			c-1.438,11.647-1.313,23.289,1.161,34.787c2.86,13.297,9.648,17.779,23.071,15.737c3.776-0.574,7.515-1.501,11.392-1.309
			c5.914,0.295,8.563,2.783,8.966,8.738c1.354,20.036-3.084,38.902-11.579,56.942c-1.082,2.3-2.638,4.223-4.435,5.988
			c-5.181,5.091-8.457,5.416-14.559,1.445c-3.5-2.277-6.575-5.103-9.891-7.615c-8.242-6.245-15.111-6.084-23.089,0.466
			c-4.166,3.421-7.317,7.765-10.334,12.142c-6.167,8.945-11.473,18.401-14.659,28.846c-3.652,11.967-0.396,18.649,11.049,23.545
			c2.908,1.245,5.907,2.282,8.748,3.684c8.789,4.338,10.512,10.203,5.809,18.729c-3.591,6.509-8.596,11.92-13.662,17.144
			c-6.707,6.917-13.836,13.47-21.529,19.336c-1.187,0.905-2.451,1.719-3.766,2.452c-10.434,5.826-15.518,4.155-20.479-6.746
			c-1.38-3.034-2.292-6.254-3.771-9.251c-4.613-9.346-11.147-12.529-21.295-9.975c-7.796,1.963-15.051,5.308-22.024,9.304
			c-6.23,3.57-12.304,7.384-17.723,12.092c-10.142,8.81-10.901,17.368-2.676,27.854c1.954,2.491,3.899,4.986,5.647,7.626
			c4.872,7.357,3.697,13.755-4.082,18.007c-11.068,6.049-22.93,9.973-35.596,11.077c-5.025,0.439-10.029,1.173-15.091,1.125
			c-1.853,0-3.706,0-5.558,0c-4.533-0.422-9.629,0.495-11.9-5.187c-0.772-1.931-0.836-3.836-0.536-5.868
			c0.656-4.445,1.397-8.881,1.794-13.362c0.771-8.737-2.287-13.844-10.36-17.296c-6.074-2.599-12.569-3.128-19.022-3.795
			c-11.375-1.176-22.65-0.634-33.597,2.887c-9.342,3.004-12.391,7.691-12.125,17.54c0.095,3.511,0.829,6.938,1.13,10.422
			c1.043,12.063-1.088,14.766-13,14.594c-17.026-0.245-33.47-3.431-49.099-10.521c-14.909-6.765-16.669-13.736-6.264-26.21
			c11.294-13.54,10.479-22.365-3.438-33.118c-9.775-7.553-20.101-14.259-31.939-18.261c-2.852-0.964-5.767-1.591-8.768-1.896
			c-7.305-0.744-12.61,2.18-16.003,8.628c-1.788,3.397-3.028,7.03-4.409,10.602c-3.922,10.142-11.027,12.937-19.985,7.047
			c-15.038-9.887-27.59-22.574-37.694-37.387c-7.552-11.07-5.186-16.965,7.386-22.125c3.387-1.391,6.837-2.646,10.041-4.449
			c7.16-4.031,9.794-9.458,8.183-17.511c-2.879-14.396-10.532-26.483-18.8-38.252c-2.617-3.726-5.857-6.793-9.632-9.329
			c-5.195-3.492-10.514-3.76-16.03-0.804c-3.848,2.063-7.099,4.94-10.514,7.594c-9.312,7.233-16.108,5.816-21.667-4.734
			c-6.048-11.482-8.857-23.9-10.09-36.719c-0.255-2.66-0.157-5.354-0.902-7.959c0-0.999,0-1.999,0-2.999
			C380.781,425.957,380.781,422.958,380,419.958z"/>
		<path fill-rule="evenodd" clip-rule="evenodd" fill="#7B7B7B" d="M380,419.958c1.323,3,1.161,5.999,0,8.999
			C380,425.957,380,422.958,380,419.958z"/>
		<path fill-rule="evenodd" clip-rule="evenodd" fill="#E4E4E4" d="M716.958,667.927c-0.021-0.268-0.035-0.535-0.042-0.804
			c2.024-0.016,4.049-0.031,6.073-0.048c-0.015,0.284-0.025,0.567-0.032,0.852C720.957,667.927,718.957,667.927,716.958,667.927z"/>
		<path fill-rule="evenodd" clip-rule="evenodd" fill="#F5F5F5" d="M962.927,330.969c-0.277,0.01-0.556,0.014-0.833,0.013
			c0.002-1.675,0.005-3.35,0.008-5.025c0.275-0.003,0.551,0.001,0.825,0.013C962.927,327.636,962.927,329.303,962.927,330.969z"/>
		<path fill-rule="evenodd" clip-rule="evenodd" fill="#FEFEFE" d="M658.486,554.653c-2.577,0.008-3.492-1.28-3.448-3.742
			c0.08-4.496-0.103-9,0.038-13.493c0.089-2.866-0.899-4.094-3.891-4.47c-67.035-8.453-120.626-57.883-134.792-124.212
			c-13.697-64.131,15.491-131.93,71.526-166.151c59.561-36.373,133.607-30.897,186.326,14.66
			c36.263,31.336,54.023,71.682,54.862,119.498c0.489,69.49-47.564,134.341-118.934,152.549c-6.261,1.598-12.681,2.687-19.09,3.539
			c-3.209,0.427-4.289,1.624-4.165,4.737c0.18,4.49-0.045,8.997,0.061,13.492c0.06,2.545-0.963,3.628-3.504,3.611"/>
	</g>
</g>
<g id="Capa_3">
	<g>
		<path opacity="0.6" d="M329.789,435.756c-2.934,0-5.8-0.199-8.6-0.6c-8.4-1.068-14.569-3.535-18.5-7.4
			c-3.932-3.865-5.9-8.065-5.9-12.6c0-4.932,2.234-9.4,6.7-13.4s10.766-6,18.9-6c2.531,0,5.231,0.234,8.1,0.7
			c2.866,0.469,5.9,1.234,9.1,2.3c1.6,0.535,2.4,1.27,2.4,2.2c0,0.534-0.4,0.8-1.2,0.8c-0.8,0-1.469-0.131-2-0.4
			c-2.134-0.799-4.168-1.365-6.1-1.699c-1.935-0.332-3.769-0.5-5.5-0.5c-5.734,0-10.1,1.635-13.1,4.9c-3,3.268-4.5,6.834-4.5,10.699
			c0,3.734,1.531,7.135,4.6,10.2c3.065,3.065,7.931,4.601,14.6,4.601c8.4,0,16.166-1.932,23.3-5.801
			c7.131-3.865,13.9-8.932,20.3-15.199c6.8-6.666,13-14.701,18.6-24.101c5.6-9.4,11.166-19.466,16.7-30.2
			c5.531-10.731,11.565-21.565,18.1-32.5c6.531-10.931,14.066-21.2,22.6-30.8c1.731-1.866,3.5-3.831,5.3-5.9
			c1.8-2.066,3.565-3.832,5.3-5.3c-4.534-0.666-9.2-1.166-14-1.5c-4.8-0.331-9.534-0.5-14.2-0.5c-6.934,0-13.5,0.3-19.7,0.9
			c-6.2,0.6-12.369,1.434-18.5,2.5c-6.269,1.2-13.269,3.068-21,5.6c-7.734,2.535-15.234,5.834-22.5,9.9
			c-7.269,4.068-13.469,8.969-18.6,14.7c-5.134,5.734-8.3,12.334-9.5,19.8c-0.134,0.668-0.234,1.369-0.3,2.1
			c-0.069,0.734-0.1,1.435-0.1,2.1c0,6.134,2.1,11.2,6.3,15.2c4.2,4,9.1,6,14.7,6c4.131,0,8.131-1.1,12-3.3
			c3.866-2.2,7.331-5.131,10.4-8.8c3.065-3.666,5.331-7.7,6.8-12.1c0.131-1.331,0.666-2,1.6-2c0.8,0,1.2,0.734,1.2,2.2
			c-0.134,5.869-1.834,10.934-5.1,15.2c-3.269,4.269-7.369,7.5-12.3,9.7c-4.935,2.2-9.935,3.3-15,3.3c-5.2,0-10.135-1.1-14.8-3.3
			c-4.668-2.2-8.469-5.466-11.4-9.8c-2.935-4.332-4.4-9.7-4.4-16.1c0-7.466,1.831-14.066,5.5-19.8
			c3.666-5.731,8.565-10.766,14.7-15.1c6.131-4.332,12.8-8,20-11c7.2-3,14.4-5.4,21.6-7.2c7.2-1.8,13.731-3.166,19.6-4.1
			c6-0.931,12.231-1.666,18.7-2.2c6.465-0.531,13.031-0.8,19.7-0.8c5.731,0,11.466,0.269,17.2,0.8
			c5.731,0.534,11.331,1.334,16.8,2.4c2.266-1.731,4.6-3.266,7-4.6c2.4-1.331,5.066-2.531,8-3.6c1.866-0.8,3.266-1.2,4.2-1.2
			c0.8,0,1.2,0.269,1.2,0.8c0,0.935-1.068,2.069-3.2,3.4c-1.069,0.535-2.4,1.469-4,2.8c-1.6,1.334-3.334,2.869-5.2,4.6
			c8.666,2.135,16.466,5.334,23.4,9.6c7.6,4.535,13.031,9.334,16.3,14.4c3.266,5.069,4.9,10.269,4.9,15.6
			c0,6.134-1.869,12.234-5.6,18.3c-3.734,6.068-8.6,11.7-14.6,16.9c-6,5.2-12.6,9.7-19.8,13.5c-7.2,3.8-14.334,6.569-21.4,8.3
			c-6.8,1.734-13.669,3-20.6,3.8c-6.935,0.8-13.134,1.2-18.6,1.2c-0.934,0-1.9,0-2.9,0s-1.969-0.065-2.9-0.2
			c-4.535,6.4-9.2,12.635-14,18.699c-4.8,6.069-10.2,11.969-16.2,17.701c-7.334,6.934-15.334,12.199-24,15.799
			C347.721,433.956,338.855,435.756,329.789,435.756z M413.389,373.756c5.066,0.135,10.731-0.266,17-1.2
			c6.266-0.931,12.531-2.332,18.8-4.2c10.4-3.2,19.766-7.8,28.1-13.8c8.332-6,14.932-12.666,19.8-20
			c4.866-7.332,7.3-14.531,7.3-21.6c0-4.266-1.034-8.331-3.1-12.2c-2.068-3.865-5.434-7.331-10.1-10.4
			c-3.069-2-6.535-3.731-10.4-5.2c-3.869-1.466-7.934-2.666-12.2-3.6c-6.8,9.6-13.169,19.6-19.1,30
			c-5.935,10.4-11.8,20.869-17.6,31.4C426.089,353.49,419.92,363.756,413.389,373.756z"/>
		<path opacity="0.6" d="M523.586,428.156c-2.534,0-5.069-1.031-7.6-3.1c-2.534-2.066-3.8-5.432-3.8-10.101
			c0-3.601,0.866-7.731,2.6-12.399c1.6-4.531,3.766-8.932,6.5-13.201c2.731-4.266,4.7-7.73,5.9-10.399c0.4-1.065,0.6-2,0.6-2.8
			c0-2.4-1.5-4.131-4.5-5.2c-3-1.065-6.9-1.666-11.7-1.8l-2.4,6.6c-1.469,4.269-3.5,9.27-6.1,15c-2.6,5.734-5.469,11.27-8.6,16.6
			c-3.134,5.335-6.366,9.601-9.7,12.801c-0.266,0.269-0.6,0.4-1,0.4c-0.531,0-0.9-0.332-1.1-1c-0.2-0.666,0.1-1.467,0.9-2.4
			c5.2-6.932,9.866-14.631,14-23.1c4.131-8.467,7.631-17.101,10.5-25.9c2.866-8.8,4.966-16.932,6.3-24.4
			c0.4-2.131,1.131-3.7,2.2-4.7c1.065-1,2.2-1.5,3.4-1.5c1.731,0,3.332,0.834,4.8,2.5c1.465,1.668,2.2,4.034,2.2,7.1
			c0,0.534-0.034,1.134-0.1,1.8c-0.068,0.669-0.168,1.334-0.3,2c-0.534,2.8-2.1,5.435-4.7,7.9c-2.6,2.469-4.7,4.3-6.3,5.5
			c1.331,0.134,2.731,0.234,4.2,0.3c1.465,0.068,3.065,0.1,4.8,0.1c6.266,0,12.466-0.4,18.6-1.2c0.266,0.8,0.4,1.4,0.4,1.8
			c0,1.734-0.5,3.935-1.5,6.6c-1,2.669-2.034,5.069-3.1,7.2c-0.534,1.2-1.6,3.369-3.2,6.5c-1.6,3.135-3.334,6.668-5.2,10.6
			c-1.869,3.935-3.435,7.801-4.7,11.6c-1.269,3.801-1.9,7.035-1.9,9.701c0,3.469,1.332,5.199,4,5.199c2,0,4.2-1.3,6.6-3.9
			c2.4-2.6,4.766-5.799,7.1-9.6c2.331-3.8,4.465-7.531,6.4-11.199c1.931-3.666,3.431-6.566,4.5-8.701c0.531-1.33,1.266-2,2.2-2
			c0.531,0,0.8,0.469,0.8,1.4c0,0.535-0.2,1.334-0.6,2.4c-1.469,3.068-3.2,6.534-5.2,10.4c-2,3.868-4.234,7.668-6.7,11.399
			c-2.469,3.734-5.134,6.969-8,9.7c-2.869,2.734-5.969,4.5-9.3,5.3C525.386,428.088,524.651,428.156,523.586,428.156z"/>
		<path opacity="0.6" d="M561.583,427.956c-5.068,0-8.8-1.7-11.2-5.101c-2.4-3.399-3.6-7.564-3.6-12.5c0-6,1.4-12.266,4.2-18.799
			c2.666-6.132,6.065-11.732,10.2-16.801c4.131-5.065,8.6-9.166,13.4-12.3c4.8-3.131,9.466-4.7,14-4.7c5.066,0,8.8,1.669,11.2,5
			c2.4,3.334,3.6,7.535,3.6,12.6c0,6.134-1.4,12.4-4.2,18.8c-1.6,3.6-3.869,7.568-6.8,11.9c-2.935,4.334-6.269,8.299-10,11.899
			c0.8,1.469,1.931,2.7,3.4,3.7c1.466,1,3.466,1.5,6,1.5c3.2,0,6.231-1.332,9.1-4c2.866-2.666,5.5-5.9,7.9-9.7s4.531-7.632,6.4-11.5
			c1.866-3.866,3.4-7,4.6-9.399c0.4-0.801,1.065-1.201,2-1.201c0.531,0,0.931,0.234,1.2,0.701c0.266,0.469,0.2,1.168-0.2,2.1
			c-0.8,2-2.134,4.969-4,8.9c-1.869,3.934-4.134,8-6.8,12.199c-2.669,4.2-5.734,7.77-9.2,10.7c-3.469,2.935-7.334,4.399-11.6,4.399
			c-2.934,0-5.469-0.5-7.6-1.5c-2.134-1-3.869-2.23-5.2-3.699c-2.8,2.135-5.6,3.8-8.4,5
			C567.183,427.355,564.383,427.956,561.583,427.956z M564.583,423.557c3.6,0,7.466-1.732,11.6-5.201c-1.069-1.6-1.869-3.266-2.4-5
			c-0.534-1.73-0.8-3.33-0.8-4.799c0-2.4,0.565-4.467,1.7-6.201c1.131-1.73,2.9-2.6,5.3-2.6c1.731,0,3.166,0.635,4.3,1.9
			c1.131,1.269,1.7,2.699,1.7,4.3c0,0.399-0.035,0.769-0.1,1.101c-0.069,0.334-0.169,0.699-0.3,1.1
			c2.266-3.066,4.4-6.666,6.4-10.801c4.4-9.465,6.6-17.265,6.6-23.399c0-3.065-0.6-5.466-1.8-7.2c-1.2-1.731-3-2.6-5.4-2.6
			c-2.8,0-5.834,1.2-9.1,3.6c-3.269,2.4-6.4,5.6-9.4,9.6s-5.634,8.468-7.9,13.4c-2.135,4.535-3.834,8.9-5.1,13.1
			c-1.269,4.201-1.9,7.835-1.9,10.9c0,2.669,0.531,4.801,1.6,6.4C560.649,422.756,562.314,423.557,564.583,423.557z"/>
		<path opacity="0.6" d="M547.381,491.756c-6.931,0-11.832-1.368-14.7-4.1c-2.866-2.734-4.3-5.969-4.3-9.7c0-3.6,1-7.2,3-10.8
			c1.869-3.869,4.469-7.169,7.8-9.9c3.334-2.734,7-5.034,11-6.899c6.8-3.2,14.634-5.801,23.5-7.801c8.869-2,17.369-4.199,25.5-6.6
			c1.069-1.868,2.169-3.8,3.3-5.8c1.134-2,2.168-3.932,3.1-5.801c2.666-5.33,5.066-10.165,7.2-14.5c2.131-4.33,4.4-9.1,6.8-14.299
			c-0.4,0-0.834-0.132-1.3-0.4c-0.469-0.266-0.7-0.666-0.7-1.2c0-0.531,0.131-1.065,0.4-1.601l10.4-23.199
			c0.131-0.266,0.266-0.631,0.4-1.1c0.131-0.466,0.2-0.966,0.2-1.5c0-1.332-0.334-2.531-1-3.6c-0.669-1.065-1.135-1.8-1.4-2.2
			l11-0.4c2-0.131,3.432,0.1,4.3,0.7c0.866,0.6,1.3,1.3,1.3,2.1c0,0.8-0.469,2.269-1.4,4.4l-16,37.6c-1.869,4.4-3.869,8.8-6,13.199
			c-2.134,4.4-4.334,8.869-6.6,13.4c4-1.6,7.666-3.168,11-4.699c3.332-1.531,6.531-3.531,9.6-6c3.065-2.467,6.131-5.9,9.2-10.301
			c2.666-3.865,5.065-7.932,7.2-12.199c2.131-4.266,3.666-7.266,4.6-9c0.531-1.066,1.031-1.732,1.5-2c0.466-0.266,0.766-0.4,0.9-0.4
			c0.8,0,1.2,0.469,1.2,1.4c0,0.668-0.269,1.469-0.8,2.399c-3.334,7.069-6.4,13.034-9.2,17.899c-2.8,4.869-5.769,9-8.9,12.4
			c-3.135,3.4-7.035,6.4-11.7,9c-4.669,2.6-10.6,5.231-17.8,7.9c-3.2,5.731-6.866,11.7-11,17.899c-4.131,6.2-8.8,12-14,17.4
			c-5.2,5.4-10.9,9.8-17.1,13.2C561.681,490.056,554.85,491.756,547.381,491.756z M542.581,487.756c4.4,0,8.969-1.334,13.7-4
			c4.734-2.669,9.3-6.034,13.7-10.1c4.4-4.069,8.434-8.234,12.1-12.5c3.669-4.269,6.635-8,8.9-11.2c0.8-1.068,1.534-2.269,2.2-3.6
			c0.669-1.335,1.334-2.669,2-4c-6.4,1.73-13.465,3.631-21.2,5.699c-7.731,2.066-14.531,4.366-20.4,6.9
			c-6.4,2.666-11.4,6.432-15,11.3c-3.6,4.866-5.4,9.231-5.4,13.101c0,2.531,0.769,4.565,2.3,6.1
			C537.016,486.987,539.381,487.756,542.581,487.756z M640.381,352.356c-2,0-3.634-0.7-4.9-2.1c-1.269-1.4-1.9-3.1-1.9-5.1
			c0-2.531,1-4.731,3-6.6c2-1.866,4.2-2.8,6.6-2.8c2.131,0,3.866,0.669,5.2,2c1.331,1.334,2,2.935,2,4.8c0,2.534-1,4.8-3,6.8
			S643.047,352.356,640.381,352.356z"/>
		<path opacity="0.6" d="M668.78,428.756c-4.934,0-9.369-1.6-13.3-4.8c-3.935-3.2-5.9-8.065-5.9-14.601c0-6,1.465-12.431,4.4-19.299
			c2.931-6.866,6.666-12.9,11.2-18.101c3.866-4.531,8.2-8.266,13-11.2c4.8-2.931,9.332-4.4,13.6-4.4c2.931,0,5.466,0.8,7.601,2.4
			c2.266,1.734,3.399,4.2,3.399,7.4c0,3.334-1.269,7-3.8,11c-2.535,4-6.135,7.734-10.801,11.199c-2,1.469-4.534,2.869-7.599,4.201
			c-3.069,1.334-6.135,2.434-9.2,3.299c-3.069,0.869-5.6,1.301-7.6,1.301c-0.668,1.6-1.3,3.734-1.9,6.4
			c-0.6,2.668-0.9,5.399-0.9,8.199c0,3.334,0.666,6.334,2,9c1.331,2.669,3.8,4,7.4,4c4.4,0,8.4-1.266,12-3.8
			c3.6-2.531,6.799-5.7,9.6-9.5c2.8-3.8,5.166-7.632,7.1-11.5c1.932-3.866,3.5-7.132,4.7-9.8c0.8-1.865,1.866-2.801,3.2-2.801
			c0.666,0,1,0.335,1,1c0,0.535-0.2,1.201-0.6,2c-1.869,4-3.869,8.234-6,12.701c-2.135,4.469-4.67,8.668-7.601,12.6
			c-2.935,3.934-6.435,7.1-10.5,9.5C679.211,427.557,674.38,428.756,668.78,428.756z M665.18,393.557c1.866,0,5-0.701,9.4-2.101
			c4.4-1.399,8.4-3.632,12-6.7c3.466-3.065,6.131-6.431,8-10.1c1.865-3.666,2.801-6.766,2.801-9.3c0-2.931-1.069-4.4-3.201-4.4
			c-1.6,0-3.799,1.069-6.6,3.2c-2.8,2.134-6.269,5.734-10.4,10.8c-2.534,3.2-4.934,6.669-7.2,10.399
			C667.711,389.09,666.112,391.824,665.18,393.557z"/>
		<path opacity="0.6" d="M720.777,428.756c-7.6,0-12.934-1.831-16-5.5c-3.068-3.666-4.6-8.166-4.6-13.5
			c0-5.865,1.365-12.131,4.1-18.8c2.731-6.666,5.966-12.466,9.7-17.4c3.866-5.2,8.132-9.231,12.8-12.1c4.666-2.866,9.4-4.3,14.2-4.3
			c5.065,0,8.8,1.269,11.2,3.8c2.4,2.534,3.331,5.935,2.8,10.2c-0.269,2.668-1.534,5.3-3.8,7.9c-2.27,2.6-4.535,3.9-6.801,3.9
			c-1.068,0-2-0.4-2.799-1.2c1.064-1.331,2.199-2.931,3.399-4.8c1.2-1.866,2.065-3.666,2.601-5.4c0.531-1.6,0.799-3.2,0.799-4.8
			c0-3.331-1.6-5-4.799-5c-3.601,0-7.369,1.834-11.301,5.5c-3.934,3.669-7.369,7.635-10.3,11.9c-1.2,1.6-2.634,4.1-4.3,7.5
			c-1.669,3.4-3.169,7.135-4.5,11.199c-1.334,4.069-2,8.035-2,11.9c0,4,0.9,7.568,2.699,10.7c1.801,3.134,4.832,4.7,9.101,4.7
			c5.866,0,10.899-1.832,15.101-5.5c4.199-3.666,7.931-8.231,11.199-13.7c3.266-5.466,6.231-10.8,8.9-16
			c0.8-1.601,1.6-2.399,2.4-2.399c0.665,0,1,0.533,1,1.6c0,0.534-0.201,1.199-0.601,2c-3.2,6.934-6.469,13.269-9.8,19
			c-3.334,5.734-7.369,10.269-12.1,13.6C734.344,427.09,728.243,428.756,720.777,428.756z"/>
		<path opacity="0.6" d="M766.175,427.956c-3.734,0-7.069-1.3-10-3.899c-2.935-2.601-4.399-6.701-4.399-12.301
			c0-4.4,0.83-9.831,2.5-16.3c1.665-6.466,3.73-13.2,6.199-20.2c2.466-7,4.9-13.365,7.301-19.1h-10.601
			c-0.935,0-1.399-0.666-1.399-2c0-0.666,0.165-1.266,0.5-1.8c0.33-0.531,0.83-0.8,1.5-0.8h12c2.266-5.066,4.665-10,7.199-14.8
			c2.531-4.8,5-9.331,7.4-13.6c3.065-5.332,6.331-9.332,9.8-12c3.466-2.666,6.466-4,9-4c2,0,3.666,0.769,5,2.3
			c1.331,1.534,2,3.834,2,6.9c0,1.869-0.4,4.435-1.2,7.7c-0.8,3.269-2.068,6.7-3.8,10.3c-0.935,1.869-2.234,4.535-3.9,8
			c-1.668,3.469-3.3,6.535-4.899,9.2h9.6c0.932,0,1.4,0.668,1.4,2c0,0.534-0.135,1.1-0.4,1.7c-0.269,0.6-0.669,0.9-1.2,0.9h-11.8
			c-3.334,5.734-7.135,11.334-11.4,16.8c-4.268,5.469-9.334,10.935-15.199,16.399c-0.4,1.201-0.9,2.936-1.5,5.201
			c-0.6,2.268-1.135,4.568-1.6,6.899c-0.469,2.335-1.035,5.101-1.701,8.3c-0.399,1.734-0.6,3.334-0.6,4.801
			c0,2.799,0.666,4.834,2,6.1c1.332,1.269,2.865,1.9,4.6,1.9c1.066,0,2.132-0.166,3.201-0.5c1.064-0.332,2.266-0.967,3.6-1.9
			c4.666-3.332,8.766-7.865,12.3-13.6c3.531-5.732,6.631-11.266,9.3-16.601c0.8-1.601,1.601-2.399,2.4-2.399
			c0.531,0,0.8,0.399,0.8,1.199c0,0.4-0.2,1.135-0.6,2.2c-2.935,6.134-5.4,11.069-7.4,14.8c-2,3.734-3.935,6.834-5.8,9.301
			c-1.869,2.469-4.068,4.899-6.6,7.299c-1.869,1.869-4,3.27-6.4,4.201C770.975,427.49,768.574,427.956,766.175,427.956z
			 M768.975,382.956c3.865-4,7.5-8.266,10.9-12.8c3.4-4.531,6.565-9.2,9.5-14h-9.4c-2.135,4.934-4.135,9.734-6,14.4
			C772.105,375.225,770.44,379.356,768.975,382.956z M781.975,351.556h10.2c1.865-3.466,3.631-6.866,5.3-10.2
			c1.666-3.331,3.166-6.666,4.5-10c0.932-2.131,1.731-4.531,2.4-7.2c0.665-2.666,1-4.731,1-6.2c0-2-0.469-3-1.4-3
			c-0.669,0-1.634,0.569-2.899,1.7c-1.27,1.134-2.835,3.034-4.7,5.7c-2.4,3.334-4.77,7.634-7.1,12.9
			C786.94,340.525,784.506,345.956,781.975,351.556z"/>
		<path opacity="0.6" d="M836.973,502.756c-12.4,0-23.469-1.8-33.2-5.399c-9.734-3.601-17.399-8.835-23-15.7
			c-5.601-6.869-8.399-15.169-8.399-24.9c0-3.734,0.434-7.634,1.299-11.7c0.869-4.068,2.234-8.368,4.101-12.899
			c1.868-4.4,4.669-8.531,8.399-12.4c3.732-3.865,7.531-7,11.4-9.4c3.866-2.399,6.866-3.6,9-3.6h0.601c1.199,0,1.8,0.2,1.8,0.6
			c0,0.27-0.269,0.601-0.8,1c-0.535,0.4-1.135,0.734-1.801,1c-2.269,0.936-5.134,2.9-8.6,5.9c-3.469,3-6.769,6.734-9.899,11.2
			c-3.132,4.466-5.5,9.366-7.101,14.7c-1.2,4.399-1.8,8.6-1.8,12.6c0,7.2,1.8,13.466,5.4,18.8c3.6,5.332,8.33,9.766,14.199,13.301
			c5.866,3.531,12.331,6.165,19.4,7.899c7.065,1.731,14,2.601,20.8,2.601c2.666,0,5.266-0.101,7.8-0.301
			c2.531-0.199,4.932-0.568,7.2-1.1c11.731-2.669,22.5-7.1,32.3-13.3s18.766-13.569,26.9-22.101
			c8.131-8.534,15.5-17.699,22.1-27.499c6.601-9.801,12.5-19.701,17.7-29.701s9.865-19.531,14-28.6
			c4.131-9.065,7.731-17.065,10.8-24c4.8-10.4,9.366-19.766,13.7-28.1c4.331-8.332,8.131-15.366,11.4-21.1
			c3.266-5.731,5.631-9.731,7.1-12c-6.534,1.069-13.769,2.769-21.7,5.1c-7.935,2.334-15.935,5.369-24,9.1
			c-8.068,3.734-15.6,8.135-22.6,13.2c-7,5.069-12.869,10.8-17.601,17.2c-4.734,6.4-7.769,13.534-9.1,21.4
			c-0.135,1.2-0.234,2.269-0.3,3.2c-0.069,0.935-0.101,1.935-0.101,3c0,5.869,1.332,10.7,4,14.5c2.666,3.8,6.466,5.7,11.4,5.7
			c2.131,0,4.8-0.531,8-1.6c5.331-1.866,9.432-4.465,12.3-7.8c2.866-3.332,4.9-6.866,6.101-10.6c1.199-3.731,1.8-7,1.8-9.8
			c0-3.332-0.534-5.531-1.601-6.6c-0.8-0.4-1.199-0.931-1.199-1.6c0-1.2,0.73-1.8,2.199-1.8c1.2,0,2.266,0.6,3.2,1.8
			c1.2,2.935,1.8,6,1.8,9.2c0,4.4-1.1,8.769-3.3,13.1c-2.2,4.334-5.134,8.169-8.8,11.5c-3.669,3.334-7.834,5.8-12.5,7.4
			c-3.6,1.334-7.334,2-11.2,2c-7.334,0-13.469-2.432-18.399-7.3c-4.935-4.866-7.4-11.366-7.4-19.5c0-2,0.2-4.065,0.6-6.2
			c1.466-9.332,5.066-17.566,10.801-24.7c5.73-7.131,12.8-13.331,21.199-18.6c8.4-5.266,17.332-9.7,26.801-13.3
			c9.465-3.6,18.831-6.5,28.1-8.7c9.266-2.2,17.565-3.766,24.9-4.7c0.665-0.932,1.865-2.531,3.6-4.8c1.731-2.266,3.731-4.531,6-6.8
			c2.266-2.266,4.531-3.731,6.8-4.4c1.466-0.4,2.866-0.6,4.2-0.6c2,0,3.666,0.5,5,1.5c1.331,1,2,2.5,2,4.5
			c0,4.134-1.769,7.134-5.3,9c-3.534,1.869-7.234,3.4-11.101,4.6c-1.199,0-2.734,0.269-4.6,0.8c-1.869,0.534-3.2,0.8-4,0.8
			c-6.534,11.2-12.034,22.734-16.5,34.6c-4.469,11.869-8.834,24.169-13.1,36.9c-4.27,12.734-9.27,25.801-15,39.2
			c-5.734,13.399-13.2,27.234-22.4,41.5c-5.869,9.2-12.734,17.4-20.6,24.6c-7.869,7.2-16.101,13.366-24.7,18.5
			c-8.601,5.132-16.969,9.231-25.101,12.301c-8.134,3.065-15.534,5.065-22.199,6c-3.335,0.531-6.601,0.899-9.801,1.1
			C843.173,502.656,840.038,502.756,836.973,502.756z M1019.372,282.756c5.466-0.931,9.132-2.1,11-3.5
			c1.866-1.4,2.801-2.7,2.801-3.9c0-0.666-0.234-1.231-0.7-1.7c-0.469-0.466-0.9-0.7-1.3-0.7c-0.801-0.4-1.9,0-3.301,1.2
			c-1.399,1.2-2.868,2.634-4.399,4.3C1021.938,280.125,1020.572,281.556,1019.372,282.756z"/>
	</g>
	<g id="Capa_2">
	</g>
</g>
<g id="Capa_4">
	<g>
		<path fill="#EFEFEF" d="M320.508,421.955c-2.934,0-5.8-0.2-8.6-0.6c-8.4-1.069-14.569-3.534-18.5-7.4
			c-3.932-3.865-5.9-8.065-5.9-12.6c0-4.932,2.234-9.4,6.7-13.4s10.766-6,18.9-6c2.531,0,5.231,0.234,8.1,0.7
			c2.866,0.469,5.9,1.234,9.1,2.3c1.6,0.534,2.4,1.269,2.4,2.2c0,0.534-0.4,0.8-1.2,0.8c-0.8,0-1.469-0.131-2-0.399
			c-2.134-0.801-4.168-1.366-6.1-1.7c-1.935-0.331-3.769-0.5-5.5-0.5c-5.734,0-10.1,1.634-13.1,4.899c-3,3.27-4.5,6.835-4.5,10.7
			c0,3.734,1.531,7.135,4.6,10.2c3.065,3.065,7.931,4.6,14.6,4.6c8.4,0,16.166-1.931,23.3-5.8c7.131-3.865,13.9-8.931,20.3-15.2
			c6.8-6.665,13-14.699,18.6-24.1c5.6-9.4,11.166-19.466,16.7-30.2c5.531-10.731,11.565-21.565,18.1-32.5
			c6.531-10.931,14.066-21.2,22.6-30.8c1.731-1.866,3.5-3.831,5.3-5.9c1.8-2.066,3.565-3.832,5.3-5.3c-4.534-0.666-9.2-1.166-14-1.5
			c-4.8-0.331-9.534-0.5-14.2-0.5c-6.934,0-13.5,0.3-19.7,0.9c-6.2,0.6-12.369,1.434-18.5,2.5c-6.269,1.2-13.269,3.068-21,5.6
			c-7.734,2.535-15.234,5.834-22.5,9.9c-7.269,4.068-13.469,8.969-18.6,14.7c-5.134,5.734-8.3,12.334-9.5,19.8
			c-0.134,0.668-0.234,1.369-0.3,2.1c-0.069,0.734-0.1,1.435-0.1,2.1c0,6.134,2.1,11.2,6.3,15.2c4.2,4,9.1,6,14.7,6
			c4.131,0,8.131-1.1,12-3.3c3.866-2.2,7.331-5.131,10.4-8.8c3.065-3.666,5.331-7.7,6.8-12.1c0.131-1.331,0.666-2,1.6-2
			c0.8,0,1.2,0.734,1.2,2.2c-0.134,5.869-1.834,10.934-5.1,15.2c-3.269,4.269-7.369,7.5-12.3,9.7c-4.935,2.2-9.935,3.3-15,3.3
			c-5.2,0-10.135-1.1-14.8-3.3c-4.668-2.2-8.469-5.466-11.4-9.8c-2.935-4.332-4.4-9.7-4.4-16.1c0-7.466,1.831-14.066,5.5-19.8
			c3.666-5.731,8.565-10.766,14.7-15.1c6.131-4.332,12.8-8,20-11c7.2-3,14.4-5.4,21.6-7.2c7.2-1.8,13.731-3.166,19.6-4.1
			c6-0.931,12.231-1.666,18.7-2.2c6.465-0.531,13.031-0.8,19.7-0.8c5.731,0,11.466,0.269,17.2,0.8
			c5.731,0.534,11.331,1.334,16.8,2.4c2.266-1.731,4.6-3.266,7-4.6c2.4-1.331,5.066-2.531,8-3.6c1.866-0.8,3.266-1.2,4.2-1.2
			c0.8,0,1.2,0.269,1.2,0.8c0,0.935-1.068,2.069-3.2,3.4c-1.069,0.535-2.4,1.469-4,2.8c-1.6,1.334-3.334,2.869-5.2,4.6
			c8.666,2.135,16.466,5.334,23.4,9.6c7.6,4.535,13.031,9.334,16.3,14.4c3.266,5.069,4.9,10.269,4.9,15.6
			c0,6.134-1.869,12.234-5.6,18.3c-3.734,6.068-8.6,11.7-14.6,16.9c-6,5.2-12.6,9.7-19.8,13.5c-7.2,3.8-14.334,6.569-21.4,8.3
			c-6.8,1.734-13.669,3-20.6,3.8c-6.935,0.8-13.134,1.2-18.6,1.2c-0.934,0-1.9,0-2.9,0s-1.969-0.065-2.9-0.2
			c-4.535,6.4-9.2,12.634-14,18.7c-4.8,6.068-10.2,11.969-16.2,17.699c-7.334,6.935-15.334,12.2-24,15.801
			C338.439,420.155,329.574,421.955,320.508,421.955z M404.108,359.955c5.066,0.135,10.731-0.266,17-1.2
			c6.266-0.931,12.531-2.332,18.8-4.2c10.4-3.2,19.766-7.8,28.1-13.8c8.332-6,14.932-12.666,19.8-20
			c4.866-7.332,7.3-14.531,7.3-21.6c0-4.266-1.034-8.331-3.1-12.2c-2.068-3.865-5.434-7.331-10.1-10.4
			c-3.069-2-6.535-3.731-10.4-5.2c-3.869-1.466-7.934-2.666-12.2-3.6c-6.8,9.6-13.169,19.6-19.1,30
			c-5.935,10.4-11.8,20.869-17.6,31.4C416.808,339.689,410.639,349.955,404.108,359.955z"/>
		<path fill="#EFEFEF" d="M514.305,414.355c-2.534,0-5.069-1.031-7.6-3.101c-2.534-2.065-3.8-5.431-3.8-10.1
			c0-3.6,0.866-7.731,2.6-12.4c1.6-4.531,3.766-8.931,6.5-13.2c2.731-4.266,4.7-7.731,5.9-10.4c0.4-1.065,0.6-2,0.6-2.8
			c0-2.4-1.5-4.131-4.5-5.2c-3-1.065-6.9-1.666-11.7-1.8l-2.4,6.6c-1.469,4.269-3.5,9.269-6.1,15
			c-2.6,5.734-5.469,11.269-8.6,16.601c-3.134,5.334-6.366,9.6-9.7,12.8c-0.266,0.269-0.6,0.399-1,0.399c-0.531,0-0.9-0.331-1.1-1
			c-0.2-0.665,0.1-1.465,0.9-2.399c5.2-6.932,9.866-14.632,14-23.101c4.131-8.465,7.631-17.1,10.5-25.899
			c2.866-8.8,4.966-16.932,6.3-24.4c0.4-2.131,1.131-3.7,2.2-4.7c1.065-1,2.2-1.5,3.4-1.5c1.731,0,3.332,0.834,4.8,2.5
			c1.465,1.668,2.2,4.034,2.2,7.1c0,0.534-0.034,1.134-0.1,1.8c-0.068,0.669-0.168,1.334-0.3,2c-0.534,2.8-2.1,5.435-4.7,7.9
			c-2.6,2.469-4.7,4.3-6.3,5.5c1.331,0.134,2.731,0.234,4.2,0.3c1.465,0.068,3.065,0.1,4.8,0.1c6.266,0,12.466-0.4,18.6-1.2
			c0.266,0.8,0.4,1.4,0.4,1.8c0,1.734-0.5,3.935-1.5,6.6c-1,2.669-2.034,5.069-3.1,7.2c-0.534,1.2-1.6,3.369-3.2,6.5
			c-1.6,3.134-3.334,6.668-5.2,10.6c-1.869,3.935-3.435,7.8-4.7,11.601c-1.269,3.8-1.9,7.034-1.9,9.699c0,3.469,1.332,5.2,4,5.2
			c2,0,4.2-1.3,6.6-3.899c2.4-2.601,4.766-5.801,7.1-9.601c2.331-3.8,4.465-7.531,6.4-11.2c1.931-3.665,3.431-6.565,4.5-8.7
			c0.531-1.331,1.266-2,2.2-2c0.531,0,0.8,0.469,0.8,1.4c0,0.535-0.2,1.334-0.6,2.4c-1.469,3.068-3.2,6.534-5.2,10.399
			c-2,3.869-4.234,7.669-6.7,11.4c-2.469,3.734-5.134,6.969-8,9.7c-2.869,2.734-5.969,4.5-9.3,5.3
			C516.104,414.286,515.37,414.355,514.305,414.355z"/>
		<path fill="#EFEFEF" d="M552.302,414.155c-5.068,0-8.8-1.7-11.2-5.1c-2.4-3.4-3.6-7.566-3.6-12.5c0-6,1.4-12.266,4.2-18.8
			c2.666-6.131,6.065-11.731,10.2-16.8c4.131-5.065,8.6-9.166,13.4-12.3c4.8-3.131,9.466-4.7,14-4.7c5.066,0,8.8,1.669,11.2,5
			c2.4,3.334,3.6,7.535,3.6,12.6c0,6.134-1.4,12.4-4.2,18.8c-1.6,3.6-3.869,7.568-6.8,11.899c-2.935,4.335-6.269,8.301-10,11.9
			c0.8,1.469,1.931,2.7,3.4,3.7c1.466,1,3.466,1.5,6,1.5c3.2,0,6.231-1.331,9.1-4c2.866-2.666,5.5-5.9,7.9-9.7s4.531-7.631,6.4-11.5
			c1.866-3.865,3.4-7,4.6-9.4c0.4-0.8,1.065-1.2,2-1.2c0.531,0,0.931,0.234,1.2,0.7c0.266,0.469,0.2,1.168-0.2,2.1
			c-0.8,2-2.134,4.969-4,8.899c-1.869,3.935-4.134,8-6.8,12.2c-2.669,4.2-5.734,7.769-9.2,10.7c-3.469,2.935-7.334,4.4-11.6,4.4
			c-2.934,0-5.469-0.5-7.6-1.5c-2.134-1-3.869-2.231-5.2-3.7c-2.8,2.134-5.6,3.8-8.4,5
			C557.902,413.556,555.102,414.155,552.302,414.155z M555.302,409.755c3.6,0,7.466-1.73,11.6-5.199c-1.069-1.601-1.869-3.266-2.4-5
			c-0.534-1.731-0.8-3.332-0.8-4.801c0-2.399,0.565-4.465,1.7-6.199c1.131-1.731,2.9-2.601,5.3-2.601c1.731,0,3.166,0.635,4.3,1.9
			c1.131,1.269,1.7,2.7,1.7,4.3c0,0.4-0.035,0.769-0.1,1.1c-0.069,0.335-0.169,0.7-0.3,1.101c2.266-3.065,4.4-6.666,6.4-10.8
			c4.4-9.466,6.6-17.266,6.6-23.4c0-3.065-0.6-5.466-1.8-7.2c-1.2-1.731-3-2.6-5.4-2.6c-2.8,0-5.834,1.2-9.1,3.6
			c-3.269,2.4-6.4,5.6-9.4,9.6s-5.634,8.469-7.9,13.4c-2.135,4.534-3.834,8.9-5.1,13.101c-1.269,4.199-1.9,7.834-1.9,10.899
			c0,2.669,0.531,4.8,1.6,6.4C551.368,408.955,553.033,409.755,555.302,409.755z"/>
		<path fill="#EFEFEF" d="M538.1,477.955c-6.931,0-11.832-1.368-14.7-4.1c-2.866-2.734-4.3-5.969-4.3-9.7c0-3.6,1-7.2,3-10.8
			c1.869-3.869,4.469-7.169,7.8-9.9c3.334-2.734,7-5.034,11-6.899c6.8-3.2,14.634-5.801,23.5-7.801c8.869-2,17.369-4.199,25.5-6.6
			c1.069-1.869,2.169-3.8,3.3-5.8c1.134-2,2.168-3.932,3.1-5.8c2.666-5.332,5.066-10.166,7.2-14.5c2.131-4.332,4.4-9.101,6.8-14.301
			c-0.4,0-0.834-0.131-1.3-0.399c-0.469-0.266-0.7-0.666-0.7-1.2c0-0.531,0.131-1.065,0.4-1.601l10.4-23.199
			c0.131-0.266,0.266-0.631,0.4-1.1c0.131-0.466,0.2-0.966,0.2-1.5c0-1.332-0.334-2.531-1-3.6c-0.669-1.065-1.135-1.8-1.4-2.2
			l11-0.4c2-0.131,3.432,0.1,4.3,0.7c0.866,0.6,1.3,1.3,1.3,2.1c0,0.8-0.469,2.269-1.4,4.4l-16,37.6c-1.869,4.399-3.869,8.8-6,13.2
			c-2.134,4.399-4.334,8.868-6.6,13.399c4-1.6,7.666-3.169,11-4.7c3.332-1.531,6.531-3.531,9.6-6c3.065-2.465,6.131-5.899,9.2-10.3
			c2.666-3.865,5.065-7.931,7.2-12.2c2.131-4.266,3.666-7.265,4.6-9c0.531-1.066,1.031-1.731,1.5-2c0.466-0.266,0.766-0.4,0.9-0.4
			c0.8,0,1.2,0.469,1.2,1.4c0,0.668-0.269,1.469-0.8,2.4c-3.334,7.068-6.4,13.034-9.2,17.9c-2.8,4.868-5.769,9-8.9,12.399
			c-3.135,3.4-7.035,6.4-11.7,9c-4.669,2.601-10.6,5.231-17.8,7.9c-3.2,5.731-6.866,11.7-11,17.899c-4.131,6.2-8.8,12-14,17.4
			c-5.2,5.4-10.9,9.8-17.1,13.2C552.4,476.255,545.569,477.955,538.1,477.955z M533.3,473.955c4.4,0,8.969-1.334,13.7-4
			c4.734-2.669,9.3-6.034,13.7-10.1c4.4-4.069,8.434-8.234,12.1-12.5c3.669-4.269,6.635-8,8.9-11.2c0.8-1.068,1.534-2.269,2.2-3.6
			c0.669-1.335,1.334-2.669,2-4c-6.4,1.73-13.465,3.631-21.2,5.699c-7.731,2.066-14.531,4.366-20.4,6.9
			c-6.4,2.666-11.4,6.432-15,11.3c-3.6,4.866-5.4,9.231-5.4,13.101c0,2.531,0.769,4.565,2.3,6.1
			C527.734,473.187,530.1,473.955,533.3,473.955z M631.1,338.555c-2,0-3.634-0.7-4.9-2.1c-1.269-1.4-1.9-3.1-1.9-5.1
			c0-2.531,1-4.731,3-6.6c2-1.866,4.2-2.8,6.6-2.8c2.131,0,3.866,0.669,5.2,2c1.331,1.334,2,2.935,2,4.8c0,2.534-1,4.8-3,6.8
			S633.766,338.555,631.1,338.555z"/>
		<path fill="#EFEFEF" d="M659.499,414.955c-4.934,0-9.369-1.6-13.3-4.8c-3.935-3.2-5.9-8.065-5.9-14.6c0-6,1.465-12.432,4.4-19.3
			c2.931-6.866,6.666-12.9,11.2-18.1c3.866-4.531,8.2-8.266,13-11.2c4.8-2.931,9.332-4.4,13.6-4.4c2.931,0,5.466,0.8,7.6,2.4
			c2.266,1.734,3.399,4.2,3.399,7.4c0,3.334-1.268,7-3.799,11c-2.535,4-6.135,7.734-10.801,11.2c-2,1.469-4.534,2.869-7.6,4.2
			c-3.069,1.335-6.135,2.435-9.2,3.301c-3.069,0.868-5.6,1.3-7.6,1.3c-0.668,1.6-1.3,3.734-1.9,6.399c-0.6,2.669-0.9,5.4-0.9,8.2
			c0,3.335,0.666,6.335,2,9c1.331,2.669,3.8,4,7.4,4c4.4,0,8.4-1.266,12-3.8c3.6-2.531,6.8-5.7,9.6-9.5
			c2.799-3.8,5.166-7.631,7.1-11.5c1.932-3.865,3.5-7.131,4.699-9.8c0.801-1.866,1.866-2.8,3.201-2.8c0.665,0,1,0.334,1,1
			c0,0.535-0.201,1.2-0.601,2c-1.868,4-3.868,8.235-6,12.7c-2.134,4.469-4.669,8.669-7.601,12.601c-2.934,3.935-6.434,7.1-10.5,9.5
			C669.93,413.755,665.099,414.955,659.499,414.955z M655.898,379.755c1.866,0,5-0.699,9.4-2.1c4.4-1.4,8.4-3.631,12-6.7
			c3.465-3.065,6.131-6.431,8-10.1c1.865-3.666,2.8-6.766,2.8-9.3c0-2.931-1.069-4.4-3.2-4.4c-1.6,0-3.8,1.069-6.6,3.2
			c-2.8,2.134-6.269,5.734-10.4,10.8c-2.534,3.2-4.934,6.669-7.2,10.4C658.43,375.29,656.83,378.023,655.898,379.755z"/>
		<path fill="#EFEFEF" d="M711.496,414.955c-7.6,0-12.934-1.831-16-5.5c-3.068-3.665-4.6-8.165-4.6-13.5
			c0-5.865,1.365-12.131,4.1-18.8c2.731-6.666,5.966-12.466,9.7-17.4c3.866-5.2,8.132-9.231,12.8-12.1c4.666-2.866,9.4-4.3,14.2-4.3
			c5.065,0,8.8,1.269,11.2,3.8c2.4,2.534,3.331,5.935,2.8,10.2c-0.269,2.668-1.534,5.3-3.8,7.9c-2.27,2.6-4.535,3.9-6.801,3.9
			c-1.068,0-2-0.4-2.799-1.2c1.064-1.331,2.199-2.931,3.399-4.8c1.2-1.866,2.065-3.666,2.601-5.4c0.531-1.6,0.799-3.2,0.799-4.8
			c0-3.331-1.6-5-4.799-5c-3.601,0-7.369,1.834-11.301,5.5c-3.934,3.669-7.369,7.635-10.3,11.9c-1.2,1.6-2.634,4.1-4.3,7.5
			c-1.669,3.4-3.169,7.134-4.5,11.2c-1.334,4.068-2,8.034-2,11.899c0,4,0.9,7.569,2.699,10.7c1.801,3.135,4.832,4.7,9.101,4.7
			c5.866,0,10.899-1.831,15.101-5.5c4.199-3.666,7.931-8.231,11.199-13.7c3.266-5.466,6.231-10.8,8.9-16c0.8-1.6,1.6-2.4,2.4-2.4
			c0.665,0,1,0.534,1,1.6c0,0.534-0.201,1.2-0.601,2c-3.2,6.935-6.469,13.269-9.8,19c-3.334,5.734-7.369,10.269-12.1,13.6
			C725.063,413.29,718.962,414.955,711.496,414.955z"/>
		<path fill="#EFEFEF" d="M756.894,414.155c-3.734,0-7.069-1.3-10-3.9c-2.935-2.6-4.399-6.699-4.399-12.3
			c0-4.399,0.83-9.831,2.5-16.3c1.665-6.466,3.73-13.2,6.199-20.2c2.466-7,4.9-13.365,7.301-19.1h-10.601
			c-0.935,0-1.399-0.666-1.399-2c0-0.666,0.165-1.266,0.5-1.8c0.33-0.531,0.83-0.8,1.5-0.8h12c2.266-5.066,4.665-10,7.199-14.8
			c2.531-4.8,5-9.331,7.4-13.6c3.065-5.332,6.331-9.332,9.8-12c3.466-2.666,6.466-4,9-4c2,0,3.665,0.769,5,2.3
			c1.331,1.534,2,3.834,2,6.9c0,1.869-0.399,4.435-1.2,7.7c-0.8,3.269-2.068,6.7-3.8,10.3c-0.935,1.869-2.234,4.535-3.899,8
			c-1.67,3.469-3.301,6.535-4.9,9.2h9.6c0.932,0,1.4,0.668,1.4,2c0,0.534-0.135,1.1-0.4,1.7c-0.269,0.6-0.668,0.9-1.199,0.9h-11.801
			c-3.334,5.734-7.135,11.334-11.4,16.8c-4.268,5.469-9.334,10.935-15.199,16.4c-0.4,1.2-0.9,2.935-1.5,5.2
			c-0.6,2.27-1.135,4.569-1.6,6.9c-0.469,2.334-1.035,5.1-1.701,8.3c-0.399,1.734-0.6,3.335-0.6,4.8c0,2.801,0.666,4.835,2,6.101
			c1.332,1.269,2.865,1.899,4.6,1.899c1.066,0,2.132-0.165,3.201-0.5c1.064-0.331,2.266-0.965,3.6-1.899
			c4.666-3.331,8.766-7.866,12.3-13.601c3.531-5.73,6.632-11.266,9.3-16.6c0.801-1.6,1.6-2.4,2.4-2.4c0.531,0,0.8,0.4,0.8,1.2
			c0,0.4-0.2,1.135-0.601,2.2c-2.934,6.135-5.399,11.068-7.399,14.8c-2,3.734-3.935,6.835-5.8,9.3c-1.869,2.469-4.068,4.9-6.6,7.301
			c-1.869,1.868-4,3.269-6.4,4.199C761.693,413.689,759.293,414.155,756.894,414.155z M759.693,369.155c3.865-4,7.5-8.266,10.9-12.8
			c3.4-4.531,6.565-9.2,9.5-14h-9.4c-2.135,4.934-4.135,9.734-6,14.4C762.824,361.424,761.159,365.555,759.693,369.155z
			 M772.693,337.755h10.2c1.866-3.466,3.632-6.866,5.3-10.2c1.666-3.331,3.166-6.666,4.5-10c0.932-2.131,1.731-4.531,2.4-7.2
			c0.666-2.666,1-4.731,1-6.2c0-2-0.469-3-1.4-3c-0.668,0-1.635,0.569-2.9,1.7c-1.268,1.134-2.834,3.034-4.699,5.7
			c-2.4,3.334-4.77,7.634-7.1,12.9C777.659,326.724,775.225,332.155,772.693,337.755z"/>
		<path fill="#EFEFEF" d="M827.691,488.955c-12.4,0-23.469-1.8-33.201-5.399c-9.734-3.601-17.399-8.835-23-15.7
			c-5.6-6.869-8.399-15.169-8.399-24.9c0-3.734,0.435-7.634,1.3-11.7c0.869-4.068,2.234-8.368,4.1-12.899
			c1.869-4.4,4.67-8.531,8.4-12.4c3.731-3.865,7.531-7,11.4-9.399c3.865-2.4,6.865-3.601,9-3.601h0.6c1.2,0,1.801,0.2,1.801,0.601
			c0,0.269-0.27,0.6-0.801,1c-0.534,0.399-1.135,0.734-1.8,1c-2.269,0.934-5.134,2.899-8.601,5.899c-3.469,3-6.768,6.734-9.899,11.2
			s-5.5,9.365-7.101,14.7c-1.199,4.399-1.799,8.6-1.799,12.6c0,7.2,1.799,13.466,5.399,18.8c3.601,5.332,8.331,9.766,14.2,13.301
			c5.865,3.531,12.331,6.165,19.4,7.899c7.064,1.731,14,2.601,20.799,2.601c2.666,0,5.266-0.101,7.801-0.301
			c2.531-0.199,4.932-0.568,7.199-1.1c11.732-2.669,22.5-7.1,32.301-13.3c9.8-6.2,18.766-13.569,26.9-22.101
			c8.131-8.534,15.5-17.699,22.1-27.5c6.6-9.8,12.5-19.699,17.699-29.699c5.201-10.001,9.866-19.532,14-28.601
			c4.132-9.065,7.732-17.065,10.801-24c4.8-10.4,9.365-19.766,13.699-28.1c4.332-8.332,8.132-15.366,11.4-21.1
			c3.266-5.731,5.631-9.731,7.1-12c-6.533,1.069-13.768,2.769-21.699,5.1c-7.935,2.334-15.935,5.369-24,9.1
			c-8.068,3.734-15.6,8.135-22.6,13.2c-7,5.069-12.869,10.8-17.601,17.2c-4.734,6.4-7.769,13.534-9.101,21.4
			c-0.134,1.2-0.234,2.269-0.299,3.2c-0.069,0.935-0.101,1.935-0.101,3c0,5.869,1.331,10.7,4,14.5c2.665,3.8,6.466,5.7,11.399,5.7
			c2.132,0,4.801-0.531,8-1.6c5.332-1.866,9.432-4.465,12.301-7.8c2.865-3.332,4.9-6.866,6.1-10.6c1.2-3.731,1.801-7,1.801-9.8
			c0-3.332-0.535-5.531-1.601-6.6c-0.8-0.4-1.2-0.931-1.2-1.6c0-1.2,0.731-1.8,2.2-1.8c1.2,0,2.266,0.6,3.2,1.8
			c1.199,2.935,1.8,6,1.8,9.2c0,4.4-1.101,8.769-3.3,13.1c-2.2,4.334-5.135,8.169-8.801,11.5c-3.668,3.334-7.834,5.8-12.5,7.4
			c-3.6,1.334-7.334,2-11.199,2c-7.334,0-13.469-2.432-18.4-7.3c-4.934-4.866-7.4-11.366-7.4-19.5c0-2,0.201-4.065,0.601-6.2
			c1.466-9.332,5.065-17.566,10.8-24.7c5.731-7.131,12.801-13.331,21.2-18.6c8.399-5.266,17.331-9.7,26.8-13.3
			c9.466-3.6,18.832-6.5,28.1-8.7c9.266-2.2,17.566-3.766,24.9-4.7c0.666-0.932,1.865-2.531,3.6-4.8c1.732-2.266,3.732-4.531,6-6.8
			c2.266-2.266,4.531-3.731,6.801-4.4c1.465-0.4,2.865-0.6,4.199-0.6c2,0,3.666,0.5,5,1.5c1.332,1,2,2.5,2,4.5
			c0,4.134-1.768,7.134-5.299,9c-3.535,1.869-7.234,3.4-11.101,4.6c-1.2,0-2.734,0.269-4.601,0.8c-1.868,0.534-3.199,0.8-4,0.8
			c-6.533,11.2-12.033,22.734-16.5,34.6c-4.469,11.869-8.834,24.169-13.1,36.9c-4.269,12.734-9.269,25.8-15,39.2
			c-5.734,13.4-13.199,27.234-22.4,41.5c-5.868,9.2-12.734,17.4-20.6,24.6c-7.869,7.2-16.1,13.366-24.699,18.5
			c-8.601,5.132-16.969,9.231-25.101,12.301c-8.134,3.065-15.534,5.065-22.2,6c-3.334,0.531-6.6,0.899-9.8,1.1
			S830.756,488.955,827.691,488.955z M1010.091,268.955c5.466-0.931,9.132-2.1,11-3.5c1.866-1.4,2.8-2.7,2.8-3.9
			c0-0.666-0.234-1.231-0.699-1.7c-0.469-0.466-0.9-0.7-1.301-0.7c-0.8-0.4-1.9,0-3.3,1.2c-1.399,1.2-2.868,2.634-4.399,4.3
			C1012.656,266.324,1011.291,267.755,1010.091,268.955z"/>
	</g>
</g>
</svg>
